<svg xmlns="http://www.w3.org/2000/svg" viewBox="0 0 1200 630">
  <defs><linearGradient id="g" x1="0" y1="0" x2="1" y2="1"><stop stop-color="#4b1415"/><stop offset=".62" stop-color="#8f1d20"/><stop offset="1" stop-color="#c4522f"/></linearGradient></defs>
  <rect width="1200" height="630" fill="url(#g)"/>
  <circle cx="930" cy="315" r="230" fill="none" stroke="#f1b633" stroke-opacity=".2" stroke-width="50"/>
  <path d="M770 339h320c-20 127-74 190-160 190S790 466 770 339Z" fill="#fff1cf"/>
  <path d="M815 323c65 45 165 45 230 0M839 280c52 36 130 36 182 0" fill="none" stroke="#f1b633" stroke-width="22" stroke-linecap="round"/>
  <path d="M850 211c-32-37 28-50-3-99M942 194c-32-37 28-50-3-99M1034 211c-32-37 28-50-3-99" fill="none" stroke="#fff1cf" stroke-width="14" stroke-linecap="round"/>
  <text x="78" y="135" fill="#f1b633" font-size="26" font-family="Microsoft YaHei, sans-serif" font-weight="700" letter-spacing="5">NOODLE WORLD CUP</text>
  <text x="74" y="270" fill="#fff8e8" font-size="88" font-family="Microsoft YaHei, sans-serif" font-weight="900">中国方便面</text>
  <text x="74" y="374" fill="#fff8e8" font-size="118" font-family="Microsoft YaHei, sans-serif" font-weight="900">世界杯</text>
  <text x="80" y="465" fill="#f4d88f" font-size="34" font-family="Microsoft YaHei, sans-serif" font-weight="700">32 款方便面，只能留下一碗。</text>
</svg>
